<svg xmlns="http://www.w3.org/2000/svg" viewBox="0 0 64 64">
  <!-- NeoForge: flame/anvil hybrid in orange -->
  <!-- Anvil base body -->
  <rect x="10" y="36" width="44" height="12" rx="3" fill="#F16524"/>
  <rect x="10" y="36" width="44" height="5" rx="3" fill="#D4541A"/>
  <!-- Anvil base foot -->
  <rect x="14" y="48" width="36" height="8" rx="3" fill="#F16524"/>
  <!-- Flame 1 (left) rising from anvil -->
  <path d="M22,36 C20,28 16,24 18,16 C20,10 24,8 24,8 C22,14 26,16 26,22 C28,16 30,12 32,8 C32,8 34,16 32,22 C34,16 38,14 36,8 C36,8 40,10 42,16 C44,24 40,28 38,36 Z" fill="#F16524"/>
  <!-- Flame highlight -->
  <path d="M26,34 C25,28 22,24 24,18 C25,14 27,12 27,12 C26,16 28,18 28,22 C29,18 30,15 31,12 C31,12 32,18 31,22 C32,18 34,17 33,14 C33,14 35,16 36,20 C37,26 34,30 32,34 Z" fill="#FF8C42"/>
</svg>
